#!OML:ASF F:\VICON\USERDATA\INSTALL\rory3\rory3.ASF
:FULLY-SPECIFIED
:DEGREES
19
root -1.1955399999999998 17.7605 -11.529200000000028 2.916980000000001 5.350420000000004 -0.5154669999999992
lfemur -34.26409999999998 5.387440000000007 -25.436199999999996
ltibia 35.2141
lfoot -2.8628200000000046 -17.293099999999995
ltoes -12.223500000000001
rfemur 6.374349999999991 5.682239999999998 31.035199999999996
rtibia 75.46280000000002
rfoot 18.909 -11.491
rtoes 8.229849999999994
lowerback 1.0 1.9342599999999996 1.6613400000000011
upperback -0.036459100000000744 2.861970000000002 0.14042499999999802
thorax -8.151300000000003 1.3191200000000012 -1.3978200000000005
lowerneck -18.1504 -6.606840000000002 -1.6191100000000005
upperneck 14.658200000000003 -9.374600000000004 4.26608
head 7.78493 -4.133310000000001 0.5424340000000002
lclavicle 5.0093700000000013e-14 1.6300299999999975e-14
lhumerus -67.44420000000002 -1.4736699999999958 93.8479
lradius 108.27399999999999
lwrist 32.7429
lhand -28.1076 0.1718310000000045
lfingers 7.12502
lthumb -1.4898400000000014 30.146399999999993
rclavicle 5.0093700000000013e-14 1.6300299999999975e-14
rhumerus -32.19160000000001 15.82530000000001 -94.7096
rradius 107.37299999999999
rwrist -19.5838
rhand -19.7107 1.0
rfingers 7.12502
rthumb 6.619099999999999 9.459050000000001
20
root -1.18527 17.5816 -10.513000000000027 1.98311 7.2754499999999895 0.35616900000000085
lfemur -32.49169999999998 4.55987 -26.134599999999995
ltibia 41.279100000000035
lfoot -7.6667600000000204 -18.499600000000008
ltoes 0.0028878099999811724
rfemur 2.584449999999995 1.5431800000000016 28.746800000000004
rtibia 84.54780000000001
rfoot 18.33220000000002 -10.232799999999996
rtoes 15.06090000000001
lowerback 1.0 1.3810799999999996 0.8038249999999998
upperback 0.19794299999999998 1.9724099999999989 -0.08326460000000258
thorax -8.61198 0.9142669999999998 -0.9956979999999985
lowerneck -17.7446 -6.570739999999997 -1.80558
upperneck 14.567400000000001 -9.355540000000001 4.686689999999999
head 7.71711 -4.103309999999997 0.723983
lclavicle 3.138309999999994e-14 -1.789059999999995e-15
lhumerus -64.68379999999998 -2.9362999999999913 94.9748
lradius 109.18500000000002
lwrist 32.9161
lhand -28.3694 -0.03649400000001091
lfingers 7.12502
lthumb -1.7427200000000007 29.936099999999996
rclavicle 3.138309999999994e-14 -1.789059999999995e-15
rhumerus -35.018399999999986 14.7092 -95.7278
rradius 103.761
rwrist -20.7279
rhand -18.3578 1.0
rfingers 7.12502
rthumb 7.925019999999999 10.289
21
root -1.4272305020687095 17.277107616247477 -9.222327671312186 2.853177161767611 2.8909835098588084 -1.2199162366921703
lfemur -33.57497367721494 4.901299372688218 -23.374671874478203
ltibia 47.15332429867883
lfoot -12.507302683090106 -12.026580877920987
ltoes 1.3348033846998764
rfemur -0.13727351910731578 3.112269058366001 25.93990824050112
rtibia 92.88014053820152
rfoot 17.19528009556076 -10.360760008710805
rtoes 10.564521615444072
lowerback 1.0 2.345206362643208 1.3770226873613824
upperback 0.24545547789312971 3.1400852425014008 -0.005946632089931181
thorax -9.032846532241498 1.4396971233345575 -0.9278670099615195
lowerneck -18.522817659691075 -6.336246323740967 -1.9542712199351795
upperneck 13.729756060286984 -9.375297390474708 4.799414008391738
head 7.708639477178547 -3.9572651117012443 0.8226858591466726
lclavicle -3.449311728935033e-16 1.4048470076721656e-15
lhumerus -61.852167458836156 -5.21860137898845 94.65601686089124
lradius 111.21303788949298
lwrist 35.52744686038296
lhand -30.872646369501794 3.3568691732925355
lfingers 7.12502
lthumb -4.389568639663122 32.66018249920656
rclavicle 1.9320821473837756e-15 2.8816522164919137e-15
rhumerus -35.79775590772807 14.929890221654817 -95.87896407167254
rradius 99.06941438613384
rwrist -18.830194790385768
rhand -19.5323014715192 1.0
rfingers 7.12502
rthumb 7.637754045002413 10.374823839545742
22
root -1.432670848144551 17.019803179166676 -7.32834720412497 2.8012803940069197 0.7973324570086542 -1.9892890925101367
lfemur -32.994814762137246 6.7530923790192245 -22.630996736059444
ltibia 53.12630806885757
lfoot -17.62972815799093 -6.484464661328952
ltoes -0.4219545533678719
rfemur -5.014616410463498 3.8258310613888313 26.194710018715348
rtibia 100.65392519909135
rfoot 15.794326779296249 -9.876364464303307
rtoes 14.302346827291684
lowerback 1.0 2.7104767643250076 1.489527109356391
upperback 0.5154120890394758 3.4915719139156463 0.038390041773264216
thorax -9.123048751906708 1.6313398706571576 -0.6892843727010586
lowerneck -19.349007610854308 -6.257916940471198 -1.9073765103794216
upperneck 13.354439231168383 -9.280344379764493 5.012612435036063
head 7.674247603478236 -3.8746771229069963 0.878277263974571
lclavicle 9.502165397297558e-17 1.1542257201289186e-15
lhumerus -58.000189174089904 -6.733439279906084 94.6773878836649
lradius 111.01242383751016
lwrist 37.3862893246883
lhand -30.12345865898161 7.577934396904714
lfingers 7.12502
lthumb -3.435102594285631 37.58960045633607
rclavicle 5.696922039499573e-17 1.3068822986173004e-15
rhumerus -36.802777748972446 14.173534695386616 -96.21884068567161
rradius 94.55586928343195
rwrist -17.43009973520656
rhand -19.719790403189016 1.0
rfingers 7.12502
rthumb 7.882015354825575 9.047561749176666
23
root -1.4755981496718533 16.821582459078684 -7.162189407966755 2.9568255797430396 2.1469614372697263 -0.7028911800126691
lfemur -31.89147208959489 5.873321468077704 -23.79088330118057
ltibia 57.03931330804327
lfoot -21.5934056596067 -2.095351415350832
ltoes -1.741879680668422
rfemur -10.656974538664516 0.6900214070700135 23.50889812934702
rtibia 107.09196831646514
rfoot 14.982536349567857 -9.067272872474879
rtoes 17.03925199328014
lowerback 1.0 2.111966222140214 0.30779566876557884
upperback 0.6123007166158225 2.745850139026345 -0.29949561734297825
thorax -9.376720868659186 1.4032306730065884 0.07007110672278961
lowerneck -19.999721793083598 -5.973917314890835 -1.876384290650691
upperneck 12.929014617486718 -8.877562264310448 5.176670710995919
head 7.660443890864004 -3.677109812797073 0.9512136994087976
lclavicle 1.1752450091072313e-15 3.490507853987176e-15
lhumerus -54.29769037645492 -8.606131231389911 94.15074340755065
lradius 110.07092391874266
lwrist 37.50461611497691
lhand -29.256055611012243 5.515543267272546
lfingers 7.12502
lthumb -2.412982631493349 35.9016561363937
rclavicle 1.2693350959388679e-15 2.8905294622486908e-15
rhumerus -38.88386374345358 12.760077373504188 -96.52789230136895
rradius 91.03512649326535
rwrist -16.121187713296308
rhand -20.02749259832022 1.0
rfingers 7.12502
rthumb 7.584858309891879 8.24942151522978
24
root -1.4901476546733368 16.7061883054064 -6.944231883942214 3.048652171231107 3.082821548080777 0.9154711120925206
lfemur -29.54868607949171 4.66632025229916 -25.282216643355596
ltibia 58.16712527520511
lfoot -25.52300241508815 0.05954494369858665
ltoes -0.20976783685366485
rfemur -16.238276023408883 -2.4766257229089863 20.62750184224997
rtibia 112.21930912209965
rfoot 14.579481882363542 -8.158412723857667
rtoes 15.896788518999632
lowerback 1.0 1.6957247484106355 -1.073205596265192
upperback 0.5749948448362674 1.9240465956548367 -0.8111363421288363
thorax -9.354434874311636 1.0842581168961423 0.4719294102567727
lowerneck -20.2955880715675 -5.922510863200987 -1.7447030237771581
upperneck 12.411143638416544 -8.77966581563096 5.272529180833951
head 7.563408196992702 -3.6257155041348987 0.9746136123221678
lclavicle 3.598379898121491e-17 2.182231137370683e-15
lhumerus -50.40551384165612 -9.80863421894609 93.4827687160814
lradius 108.49274108255182
lwrist 36.81049612816332
lhand -28.00865307688171 3.7357705899669416
lfingers 7.12502
lthumb -0.9465774151298059 33.962189839366154
rclavicle -6.0300519784579855e-18 1.9241466499433035e-15
rhumerus -40.86221504839065 11.678026877993842 -96.74498063125334
rradius 88.78865415789431
rwrist -16.48801069070786
rhand -19.822274587841033 1.0
rfingers 7.12502
rthumb 7.755570021698796 8.788202723839087
